<?xml version="1.0" encoding="utf-8"?>
<!-- Generator: Adobe Illustrator 23.0.1, SVG Export Plug-In . SVG Version: 6.00 Build 0)  -->
<svg version="1.1" id="Layer_1" xmlns="http://www.w3.org/2000/svg" xmlns:xlink="http://www.w3.org/1999/xlink" x="0px" y="0px"
	 viewBox="0 0 299 131" style="enable-background:new 0 0 299 131;" xml:space="preserve">
<style type="text/css">
	.st0{fill:#EF3D42;}
	.st1{fill:#919396;}
</style>
<g>
	<g>
		<path class="st0" d="M115.54,26.88C76.86,30.97,50.53,38.64,41.93,42.3c9.52-3.3,39.31-9.17,76.93-11.29
			c40-2.25,99.55-0.97,156.15,17.94c0.07-0.1,6.02-9.11,6.18-9.35C216.15,20.98,155.06,22.71,115.54,26.88"/>
	</g>
	<polygon class="st1" points="50.76,52.94 37.49,52.94 40.74,44.97 82.01,44.97 78.76,52.94 65.5,52.94 56.11,76.06 41.37,76.06 	
		"/>
	<polygon class="st1" points="85.76,44.97 122.68,44.97 119.44,52.94 97.26,52.94 95.65,56.81 114.47,56.81 111.48,64.22 
		92.66,64.22 87.8,76.06 73.06,76.06 	"/>
	<polygon class="st1" points="126.23,44.97 140.97,44.97 128.34,76.06 113.6,76.06 	"/>
	<polygon class="st1" points="39.42,83.03 47.14,83.03 40.52,99.31 32.8,99.31 	"/>
	<g>
		<path class="st1" d="M48.26,87.48h6.7l-0.66,1.51h0.07c1.43-1.07,3.6-1.8,5.81-1.8c3.19,0,5.85,0.87,5.65,3.19
			c-0.05,0.53-0.33,1.39-0.69,2.26l-2.8,6.68H55.4l2.26-5.43c0.27-0.68,0.69-1.48,0.73-1.96c0.07-0.75-0.74-1.14-1.87-1.14
			c-2.21,0-3.04,1.03-3.57,2.26l-2.58,6.27h-6.95L48.26,87.48z"/>
		<path class="st1" d="M78.64,87.48h3.75l-1.23,2.78h-3.68l-1.56,3.81c-0.17,0.39-0.39,0.8-0.42,1.19
			c-0.03,0.39,0.25,0.71,1.34,0.71c1.12,0,1.72-0.05,2.29-0.07l-1.34,3.26c-1.24,0.14-2.51,0.25-3.78,0.3c-1.47,0-3.05,0-4.34-0.48
			c-1.16-0.43-1.78-1.37-1.7-2.23c0.06-0.64,0.3-1.07,0.53-1.62l2.04-4.86h-3.09l1.23-2.78h3.02l1.54-3.58h6.95L78.64,87.48z"/>
		<path class="st1" d="M94.88,92.06c0.04-0.11,0.09-0.27,0.1-0.39c0.08-0.89-0.74-1.6-2.49-1.6c-1.86,0-3.15,0.73-3.79,1.98H94.88z
			 M100.02,95.87c-0.53,0.8-2.15,3.74-10.01,3.74c-6.46,0-8.85-2.35-8.6-5.22c0.47-5.43,7.02-7.21,11.54-7.21
			c4.03,0,8.78,1.46,8.46,5.18c-0.06,0.64-0.15,1.32-0.53,2.05H87.9c-0.11,1.26,0.47,2.3,2.64,2.3c1.51,0,2.43-0.43,2.81-0.84
			H100.02z"/>
		<path class="st1" d="M105.7,87.48h6.74l-0.76,1.85h0.07c1.34-1.26,3.7-2.14,5.49-2.14c1.16,0,1.82,0.04,2.44,0.18l-1.65,3.99
			c-0.83-0.21-1.76-0.3-2.64-0.3c-2.95,0-4.49,0.82-5.52,3.31l-2.01,4.95h-6.95L105.7,87.48z"/>
		<path class="st1" d="M121.74,87.48h6.7l-0.66,1.51h0.07c1.43-1.07,3.6-1.8,5.81-1.8c3.19,0,5.85,0.87,5.65,3.19
			c-0.05,0.53-0.33,1.39-0.69,2.26l-2.79,6.68h-6.95l2.27-5.43c0.27-0.68,0.69-1.48,0.73-1.96c0.07-0.75-0.74-1.14-1.87-1.14
			c-2.21,0-3.04,1.03-3.57,2.26l-2.58,6.27h-6.95L121.74,87.48z"/>
		<path class="st1" d="M148.35,96.94c2.35,0,3.4-1.12,3.97-2.87c-1.15,0.36-2.46,0.46-3.73,0.52c-1.16,0.07-2.29,0.46-2.36,1.32
			C146.16,96.74,147.23,96.94,148.35,96.94 M142.13,91.06c1.36-3.15,5.18-3.88,9.64-3.88c3.3,0,8.82,0.27,8.57,3.15
			c-0.16,1.85-2.84,7.16-2.91,7.94c0.06,0.91-0.04,0.5,0.19,1.05h-6.81c-0.14-0.36-0.21-0.75-0.14-1.14h-0.07
			c-1.31,0.96-3.7,1.44-5.74,1.44c-3.12,0-5.82-0.89-5.62-3.15c0.27-3.12,3.93-3.97,9.18-4.22c1.97-0.09,5.08,0.09,5.21-1.37
			c0.07-0.82-1.03-1.03-2.09-1.03c-1.4,0-2.41,0.32-2.88,1.21H142.13z"/>
		<path class="st1" d="M172.83,87.48h3.75l-1.23,2.78h-3.68l-1.56,3.81c-0.17,0.39-0.39,0.8-0.42,1.19
			c-0.03,0.39,0.25,0.71,1.34,0.71c1.12,0,1.72-0.05,2.29-0.07l-1.34,3.26c-1.24,0.14-2.51,0.25-3.78,0.3c-1.47,0-3.05,0-4.34-0.48
			c-1.16-0.43-1.78-1.37-1.7-2.23c0.06-0.64,0.31-1.07,0.53-1.62l2.04-4.86h-3.09l1.23-2.78h3.02l1.54-3.58h6.95L172.83,87.48z"/>
	</g>
	<path class="st1" d="M186.27,86.2h-6.95l1.3-3.17h6.95L186.27,86.2z M178.82,87.48h6.95l-4.83,11.84H174L178.82,87.48z"/>
	<g>
		<path class="st1" d="M194.65,96.33c2.74,0,3.95-2.62,4.04-3.65c0.12-1.41-0.37-2.21-2.23-2.21c-2.77,0-3.99,2.71-4.1,3.95
			C192.27,95.37,192.68,96.33,194.65,96.33 M197.27,87.18c5.33,0,8.7,1.6,8.39,5.18c-0.26,3.03-3.23,7.25-11.62,7.25
			c-5.02,0-8.95-1.57-8.6-5.54C185.77,90.28,189.83,87.18,197.27,87.18"/>
		<path class="st1" d="M210.05,87.48h6.7l-0.66,1.51h0.07c1.43-1.07,3.6-1.8,5.81-1.8c3.19,0,5.85,0.87,5.65,3.19
			c-0.05,0.53-0.33,1.39-0.69,2.26l-2.8,6.68h-6.95l2.26-5.43c0.27-0.68,0.69-1.48,0.73-1.96c0.07-0.75-0.74-1.14-1.87-1.14
			c-2.21,0-3.04,1.03-3.57,2.26l-2.58,6.27h-6.95L210.05,87.48z"/>
		<path class="st1" d="M236.66,96.94c2.35,0,3.4-1.12,3.97-2.87c-1.15,0.36-2.46,0.46-3.73,0.52c-1.16,0.07-2.29,0.46-2.36,1.32
			C234.47,96.74,235.54,96.94,236.66,96.94 M230.44,91.06c1.36-3.15,5.18-3.88,9.64-3.88c3.3,0,8.82,0.27,8.57,3.15
			c-0.16,1.85-2.84,7.16-2.9,7.94c0.06,0.91-0.04,0.5,0.19,1.05h-6.81c-0.14-0.36-0.21-0.75-0.15-1.14h-0.07
			c-1.31,0.96-3.7,1.44-5.74,1.44c-3.12,0-5.82-0.89-5.62-3.15c0.27-3.12,3.93-3.97,9.18-4.22c1.97-0.09,5.08,0.09,5.21-1.37
			c0.07-0.82-1.03-1.03-2.09-1.03c-1.4,0-2.41,0.32-2.88,1.21H230.44z"/>
	</g>
	<polygon class="st1" points="254.4,83.03 261.35,83.03 254.73,99.31 247.78,99.31 	"/>
</g>
</svg>
